<svg version="1.2" xmlns="http://www.w3.org/2000/svg" viewBox="0 0 120 120" width="120" height="120"><defs><filter x="-50%" y="-50%" width="200%" height="200%" id="f1" ><feDropShadow dx="0" dy="0" stdDeviation="2.0833333333333335" flood-color="#c25dff" flood-opacity="1.5"/></filter></defs><style>.a{filter:url(#f1)}.b{fill:#fff}</style><path fill-rule="evenodd" class="a" d="m60 120c-32.6 0-59-26.6-59-59.5 0-32.9 26.4-59.5 59-59.5 32.6 0 59 26.6 59 59.5 0 32.9-26.4 59.5-59 59.5z"/><path class="b" d="m35.9 76h-19.4q-1.7 0-3.1-0.8-1.4-0.9-2.3-2.2-0.8-1.4-0.8-3.1v-2.4h5.8v2.1q0 0.2 0.2 0.4 0.2 0.2 0.4 0.2h18.9q0.2 0 0.4-0.2 0.1-0.2 0.1-0.4v-6q0-0.2-0.1-0.4-0.2-0.1-0.4-0.1h-19.1q-1.7 0-3.1-0.8-1.4-0.9-2.3-2.2-0.8-1.4-0.8-3.1v-6.6q0-1.6 0.8-3 0.9-1.4 2.3-2.2 1.4-0.9 3.1-0.9h19.4q1.7 0 3 0.9 1.4 0.8 2.2 2.2 0.9 1.4 0.9 3v2.5h-5.9v-2.2q0-0.2-0.1-0.4-0.2-0.1-0.4-0.1h-18.9q-0.2 0-0.4 0.1-0.2 0.2-0.2 0.4v6q0 0.2 0.2 0.4 0.2 0.1 0.4 0.1h19.2q1.7 0 3 0.9 1.4 0.8 2.2 2.2 0.9 1.4 0.9 3.1v6.5q0 1.7-0.9 3.1-0.8 1.3-2.2 2.2-1.3 0.8-3 0.8zm16.5 0h-5.8v-31.7h29.1v5.9h-23.3v7h18.8v5.9h-18.8zm31.9 0h-6.3v-1.6l11.9-14.3-11.9-14.2v-1.6h6.3l9.5 11.3 9.4-11.3h6.4v1.6l-12 14.2 12 14.2v1.7h-6.4l-9.4-11.2z"/></svg>